# xmcd
# 
# Track frame offsets:
#     187
#     17655
#     36040
#     55695
#     74492
#     95365
#     114795
#     134455
#     153930
#     172237
# 
# Disc length: 2568
# 
# Revision: 1
# Processed by: cddbd v1.5.2PL0 Copyright (c) Steve Scherf et al.
# Submitted via: fre:ac v1.0.17
# 
DISCID=7d0a060a
DTITLE=Thomas Hardin Trio - Jazzで聴くBach
DYEAR=2000
DGENRE=Jazz
TTITLE0=メヌエット
TTITLE1=インヴェンソン第1番
TTITLE2=G線上のアリア
TTITLE3=ガヴォット
TTITLE4=チェンバロ協奏曲第5番第2楽章「恋するガリア」
TTITLE5=小フーガ ト長調
TTITLE6=ポロネーズ
TTITLE7=シチリアーナ
TTITLE8=トッカータとフーガ
TTITLE9=ロンド
EXTD=
EXTT0=
EXTT1=
EXTT2=
EXTT3=
EXTT4=
EXTT5=
EXTT6=
EXTT7=
EXTT8=
EXTT9=
PLAYORDER=
